<svg version="1.1" xmlns="http://www.w3.org/2000/svg" xmlns:xlink="http://www.w3.org/1999/xlink" x="0px" y="0px"
	 viewBox="0 0 120.7 154.7" style="enable-background:new 0 0 120.7 154.7;" xml:space="preserve">
<style type="text/css">
	.st4{fill:none;stroke:#254951;stroke-width:3;stroke-miterlimit:10;}
	.st6{fill:#72C1DD;stroke:#254951;stroke-width:3;stroke-miterlimit:10;}
	.st7{fill:#254951;}
</style>
<g id="happy">
	<line class="st4" x1="70.4" y1="107.1" x2="50.7" y2="107.1"/>
	<path class="st4" d="M49.5,118.5c0-3.5,4.9-6.4,10.9-6.4s10.9,2.8,10.9,6.4"/>
	<path class="st4" d="M67.8,127.4c-3.9,1-7.5,0.9-7.5,0.9s-3.7,0.1-7.7-0.9"/>
	<path class="st6" d="M52.1,58.7c-1.9,0-23.5,0-25,0c-1.1-0.7-0.8-4.5,0-5.4s23.8-3,25-2.3S53.1,58,52.1,58.7z"/>
	<path class="st4" d="M32.7,66.5c0.8-2.8,4-4.8,7.9-4.8c3.9,0,7.1,2,7.9,4.8"/>
	<path class="st7" d="M44.3,65c0,2-1.6,3.6-3.6,3.6S37,67,37,65c0-0.3,0-0.5,0.1-0.7c0.3-1.7,1.8-2.9,3.6-2.9c1.6,0,3,1.1,3.5,2.5
		C44.2,64.3,44.3,64.6,44.3,65z"/>
	<path class="st4" d="M72.9,66.5c0.8-2.8,4-4.8,7.9-4.8c3.9,0,7.1,2,7.9,4.8"/>
	<path class="st7" d="M84.5,65c0,2-1.6,3.6-3.6,3.6c-2,0-3.6-1.6-3.6-3.6c0-0.3,0-0.5,0.1-0.7c0.3-1.7,1.8-2.9,3.6-2.9
		c1.6,0,3,1.1,3.5,2.5C84.5,64.3,84.5,64.6,84.5,65z"/>
</g>
</svg>
