<?xml version="1.0" encoding="utf-8"?>
<!-- Generator: Adobe Illustrator 22.1.0, SVG Export Plug-In . SVG Version: 6.00 Build 0)  -->
<svg version="1.1" xmlns="http://www.w3.org/2000/svg" xmlns:xlink="http://www.w3.org/1999/xlink" x="0px" y="0px"
	 viewBox="0 0 120.7 154.7" style="enable-background:new 0 0 120.7 154.7;" xml:space="preserve">
<style type="text/css">
	.st0{fill:#72C1DD;}
	.st1{fill:none;stroke:#254951;stroke-width:3;stroke-miterlimit:10;}
	.st2{fill:#72C1DD;stroke:#254951;stroke-width:3;stroke-miterlimit:10;}
	.st3{display:none;}
	.st4{display:inline;fill:none;stroke:#254951;stroke-width:3;stroke-miterlimit:10;}
	.st5{display:inline;fill:#72C1DD;stroke:#254951;stroke-width:3;stroke-miterlimit:10;}
	.st6{display:inline;fill:#254951;}
</style>
<g id="photo">
</g>
<g id="head">
	<path class="st0" d="M94.1,17.3c0,0,12.1,5.3,15.8,13.6c2.8,6.1,1.5,15.1,3,32.4l-4.9,2.1l-1.6-23.6l-8.6-20.2L94.1,17.3z"/>
	<path class="st0" d="M26.6,17.3c0,0-12.1,5.3-15.8,13.6C8,37.1,9.2,46,7.7,63.4l5.3,2.1l0.9-21.2l5.7-17.1L26.6,17.3z"/>
	<path class="st1" d="M94.1,17.3c0,0,12.1,5.3,15.8,13.6c2.8,6.1,1.5,15.1,3,32.4"/>
	<path class="st1" d="M107.7,66.6c0,0,2.3-3.2,7.5-3.2c5.3,0,3.8,12.1,3.8,12.1S118.2,86,113.7,86s-6.8,0-6.8,0"/>
	<path class="st1" d="M98.1,111.8v26.3c0,0-4.1,7.5-12.4,7.5"/>
	<g>
		<path class="st1" d="M41.1,124.5c-4.7-10.6-17.4-6.8-22.6-18.1c-4.6-10.1-7.3-38.2-4.7-59.6C16,28.7,25,18.1,32.6,11.2
			c7.6-6.9,14.1-9.7,27.7-9.7h0c13.6,0,20.2,2.7,27.7,9.7s16.6,17.5,18.8,35.6c2.6,21.4-0.1,49.5-4.7,59.6
			c-5.2,11.3-17.9,7.5-22.6,18.1c-4.3,9.7-19.2,9.1-19.2,9.1S45.4,134.2,41.1,124.5z"/>
	</g>
	<path class="st1" d="M26.6,17.3c0,0-12.1,5.3-15.8,13.6C8,37.1,9.2,46,7.7,63.4"/>
	<path class="st1" d="M13,66.6c0,0-2.3-3.2-7.5-3.2S1.7,75.5,1.7,75.5S2.5,86,7,86s6.8,0,6.8,0"/>
	<path class="st1" d="M22.5,111.8v26.3c0,0,4.8,7.5,13.1,7.5"/>
	<path class="st2" d="M69.6,137.5c0,0,13.6-8.5,15-6.9c1.4,1.6,1.3,21.2,0,22.5c-1.3,1.4-14.6-6.8-14.6-6.8"/>
	<path class="st1" d="M72.5,85.7c0,4.3-5.9,7-12.2,7s-12.2-2.7-12.2-7"/>
	<path class="st2" d="M87.4,89.6c-1,0-2,5.8-5.5,5.8c-3.5,0-6.1-3.5-6.1-3.5s-2.6-3-8,0c-2.5,1.4-4.9,1.3-7.4,1.3
		c-2.5,0-5,0.1-7.5-1.3c-5.4-3-8,0-8,0s-2.6,3.5-6.1,3.5c-3.5,0-4.6-5.8-5.5-5.8c-0.9,0-1.2,4.5-0.1,8.7c1.1,4.2,4.6,4.3,4.6,4.3
		h22.5h0h22.5c0,0,3.5-0.1,4.6-4.3C88.5,94.1,88.3,89.6,87.4,89.6z"/>
	<path class="st2" d="M51.5,137.5c0,0-13.6-8.5-15-6.9c-1.4,1.6-1.3,21.2,0,22.5c1.3,1.4,14.6-6.8,14.6-6.8"/>
	<circle class="st1" cx="80.7" cy="64.7" r="14"/>
	<polyline class="st1" points="94.6,64.7 98.1,64.7 98.1,111.5 	"/>
	<path class="st1" d="M88.1,40.7c0,0-2.4-3.2-9.6-3.2s-12.9,4-18.2,4s-11-4-18.2-4s-9.6,3.2-9.6,3.2"/>
	<path class="st1" d="M85.3,34.2c0,0-2.1-2.5-8.6-2.5s-11.5,3.1-16.2,3.1s-9.8-3.1-16.2-3.1s-8.6,2.5-8.6,2.5"/>
	<path class="st1" d="M49.5,118.5c0-3.5,4.9-6.4,10.9-6.4s10.9,2.8,10.9,6.4"/>
	<path class="st1" d="M67.8,127.4c-3.9,1-7.5,0.9-7.5,0.9s-3.7,0.1-7.7-0.9"/>
	<path class="st2" d="M62.8,150.2h-4.4c-4.4,0-7.9-3.6-7.9-7.9v0c0-4.4,3.6-7.9,7.9-7.9h4.4c4.4,0,7.9,3.6,7.9,7.9v0
		C70.7,146.6,67.1,150.2,62.8,150.2z"/>
</g>
<g id="happy" class="st3">
	<line class="st4" x1="70.4" y1="107.1" x2="50.7" y2="107.1"/>
	<path class="st4" d="M49.5,118.5c0-3.5,4.9-6.4,10.9-6.4s10.9,2.8,10.9,6.4"/>
	<path class="st4" d="M67.8,127.4c-3.9,1-7.5,0.9-7.5,0.9s-3.7,0.1-7.7-0.9"/>
	<path class="st5" d="M52.1,58.7c-1.9,0-23.5,0-25,0c-1.1-0.7-0.8-4.5,0-5.4s23.8-3,25-2.3S53.1,58,52.1,58.7z"/>
	<path class="st4" d="M32.7,66.5c0.8-2.8,4-4.8,7.9-4.8c3.9,0,7.1,2,7.9,4.8"/>
	<path class="st6" d="M44.3,65c0,2-1.6,3.6-3.6,3.6S37,67,37,65c0-0.3,0-0.5,0.1-0.7c0.3-1.7,1.8-2.9,3.6-2.9c1.6,0,3,1.1,3.5,2.5
		C44.2,64.3,44.3,64.6,44.3,65z"/>
	<path class="st4" d="M72.9,66.5c0.8-2.8,4-4.8,7.9-4.8c3.9,0,7.1,2,7.9,4.8"/>
	<path class="st6" d="M84.5,65c0,2-1.6,3.6-3.6,3.6c-2,0-3.6-1.6-3.6-3.6c0-0.3,0-0.5,0.1-0.7c0.3-1.7,1.8-2.9,3.6-2.9
		c1.6,0,3,1.1,3.5,2.5C84.5,64.3,84.5,64.6,84.5,65z"/>
</g>
<g id="sad" class="st3">
	<path class="st4" d="M73.4,109.3c0,0-6.2-2.3-13-2.3s-12.7,2.3-12.7,2.3"/>
	<path class="st5" d="M52.4,56.8C50.5,56.9,29,59,27.5,59.2c-1.1-0.6-1.2-4.4-0.5-5.4c0.7-1,23.4-5.2,24.7-4.7
		C52.9,49.7,53.4,55.9,52.4,56.8z"/>
	<path class="st4" d="M32.7,66.5c0.8-2.8,4-4.1,7.9-4.1c3.9,0,7.1,1.3,7.9,4"/>
	<path class="st6" d="M44.3,65.8c0,2-1.6,3.6-3.6,3.6S37,67.8,37,65.8c0-0.3,0-0.5,0.1-0.7c0.3-1.7,1.8-2.9,3.6-2.9
		c1.6,0,3,1.1,3.5,2.5C44.2,65,44.3,65.4,44.3,65.8z"/>
	<path class="st4" d="M72.9,66.5c0.8-2.8,4-4.1,7.9-4.1c3.9,0,7.1,1.3,7.9,4"/>
	<path class="st6" d="M84.5,65.8c0,2-1.6,3.6-3.6,3.6c-2,0-3.6-1.6-3.6-3.6c0-0.3,0-0.5,0.1-0.7c0.3-1.7,1.8-2.9,3.6-2.9
		c1.6,0,3,1.1,3.5,2.5C84.5,65,84.5,65.4,84.5,65.8z"/>
</g>
<g id="really-sad" class="st3">
	<path class="st6" d="M41.3,110.4c-1-1.7,10.5-8.8,19-8.8s20.1,7.2,19.3,8.8c-0.8,1.6-8-3-19.1-3S42.3,112,41.3,110.4z"/>
	<path class="st5" d="M52.7,53.2c-1.8,0.6-22.3,7.2-23.8,7.7c-1.2-0.3-2.1-4-1.7-5.1c0.5-1.1,21.8-10.1,23.1-9.8
		S53.4,52.2,52.7,53.2z"/>
	<line class="st4" x1="72.7" y1="63.4" x2="89.5" y2="68"/>
	<line class="st4" x1="48.7" y1="63.4" x2="31.9" y2="68"/>
</g>
</svg>
