<svg version="1.1" xmlns="http://www.w3.org/2000/svg" xmlns:xlink="http://www.w3.org/1999/xlink" x="0px" y="0px"
	 viewBox="0 0 120.7 154.7" style="enable-background:new 0 0 120.7 154.7;" xml:space="preserve">
<style type="text/css">
	.st4{fill:none;stroke:#254951;stroke-width:3;stroke-miterlimit:10;}
	.st7{fill:#72C1DD;stroke:#254951;stroke-width:3;stroke-miterlimit:10;}
	.st8{fill:#254951;}
</style>
<g id="sad">
	<path class="st4" d="M73.4,109.3c0,0-6.2-2.3-13-2.3s-12.7,2.3-12.7,2.3"/>
	<path class="st7" d="M52.4,56.8C50.5,56.9,29,59,27.5,59.2c-1.1-0.6-1.2-4.4-0.5-5.4c0.7-1,23.4-5.2,24.7-4.7
		C52.9,49.7,53.4,55.9,52.4,56.8z"/>
	<path class="st4" d="M32.7,66.5c0.8-2.8,4-4.1,7.9-4.1c3.9,0,7.1,1.3,7.9,4"/>
	<path class="st8" d="M44.3,65.8c0,2-1.6,3.6-3.6,3.6S37,67.8,37,65.8c0-0.3,0-0.5,0.1-0.7c0.3-1.7,1.8-2.9,3.6-2.9
		c1.6,0,3,1.1,3.5,2.5C44.2,65,44.3,65.4,44.3,65.8z"/>
	<path class="st4" d="M72.9,66.5c0.8-2.8,4-4.1,7.9-4.1c3.9,0,7.1,1.3,7.9,4"/>
	<path class="st8" d="M84.5,65.8c0,2-1.6,3.6-3.6,3.6c-2,0-3.6-1.6-3.6-3.6c0-0.3,0-0.5,0.1-0.7c0.3-1.7,1.8-2.9,3.6-2.9
		c1.6,0,3,1.1,3.5,2.5C84.5,65,84.5,65.4,84.5,65.8z"/>
</g>
</svg>
