<svg version="1.1" xmlns="http://www.w3.org/2000/svg" xmlns:xlink="http://www.w3.org/1999/xlink" x="0px" y="0px"
	 viewBox="0 0 140.7 202.8" style="enable-background:new 0 0 140.7 202.8;" xml:space="preserve">
<style type="text/css">
	.st0{fill:none;stroke:#254951;stroke-width:3;stroke-miterlimit:10;}
	.st1{fill:#72C1DD;stroke:#254951;stroke-width:3;stroke-miterlimit:10;}
</style>
<g id="old-woman-head">
	<path class="st0" d="M118,97.4c4.3,0,3.1,12.1,3.1,12.1s-0.6,10.6-4.3,10.6c-3.7,0-6.5,0-6.5,0"/>
	<path class="st0" d="M22,97.4c-4.3,0-3.1,12.1-3.1,12.1s0.6,10.6,4.3,10.6s6.3,0,6.3,0"/>
	<path class="st0" d="M80.3,104.4c0,3.5-4.8,5.7-10,5.7s-10-2.2-10-5.7"/>
	<path class="st0" d="M70.1,29.4l-30,1.9c0,0-30.9,32-15.7,76.1c7.4,21.7,26.6,39.5,45.8,39.5c19.2,0,38.4-17.8,45.9-39.5
		c15.1-44.1-15.8-76.1-15.8-76.1l-30-1.9"/>
	<path class="st1" d="M70.2,36c0,0,39-0.8,40.7,20.4c1.7,21.2-0.2,31.6,1.5,38.8c1,4.1,3.8,11.9,4.2,11.8c0.5-0.2,21.2-20,22.5-30.7
		c0,0-9.8-74.8-69.2-74.8c0,0-29.7-1.3-39.7,17.3S21.2,40,16.7,43.5S3.5,49.9,3.5,49.9s-12,42.1,23,62.1l-1.1-45.5
		c0,0-1.8-10.4,14.1-21.2S70.2,36,70.2,36z"/>
	<line class="st1" x1="100.1" y1="132.6" x2="100.1" y2="150.7"/>
	<line class="st1" x1="38.9" y1="132.6" x2="38.9" y2="153"/>
	<circle class="st1" cx="101.8" cy="149.2" r="3"/>
	<circle class="st1" cx="98.2" cy="157.6" r="3"/>
	<circle class="st1" cx="93.3" cy="165.5" r="3"/>
	<circle class="st1" cx="87.1" cy="172.1" r="3"/>
	<circle class="st1" cx="79.9" cy="177.7" r="3"/>
	<circle class="st1" cx="37.9" cy="149.2" r="3"/>
	<circle class="st1" cx="41.5" cy="157.6" r="3"/>
	<circle class="st1" cx="46.4" cy="165.5" r="3"/>
	<circle class="st1" cx="52.7" cy="172.1" r="3"/>
	<circle class="st1" cx="59.8" cy="177.7" r="3"/>
	<path class="st1" d="M78.5,191.1c0,6.1-3.8,10.2-8.6,10.2c-4.7,0-8.6-4.1-8.6-10.2s3.8-15.6,8.6-15.6
		C74.6,175.4,78.5,184.9,78.5,191.1z"/>
	<path class="st1" d="M121.1,137.3c0,8.8-1.8,8.9-4.1,8.9s-4.1,0.1-4.1-8.9c0-4.9,1.8-10.9,4.1-10.9S121.1,132.4,121.1,137.3z"/>
	<line class="st0" x1="116.8" y1="120" x2="116.8" y2="126.4"/>
	<path class="st1" d="M19.5,137.3c0,8.8,1.8,8.9,4.1,8.9s4.1,0.1,4.1-8.9c0-4.9-1.8-10.9-4.1-10.9S19.5,132.4,19.5,137.3z"/>
	<line class="st0" x1="23.8" y1="120" x2="23.8" y2="126.4"/>
	<path class="st0" d="M68.5,36.6c0,0,7.2-17.2-8.5-17.2S38.4,31.8,38.4,31.8S26.7,48.1,11.8,54.9"/>
	<path class="st0" d="M78.2,36.6c0,0,9-6.6,8.7-12.7s-9.5-11.1-9.5-11.1"/>
	<path class="st0" d="M88,37.6c0,0,7.5-9.6,15-9.2"/>
	<path class="st0" d="M98.4,41.3c0,0,3.2-5.1,13.5-1.6"/>
	<path class="st0" d="M109.7,50.3c0,0,12.8,6.5,16,7.5"/>
	<path class="st0" d="M110.9,61c0,0,8.1,3,13.1,6.3"/>
	<path class="st0" d="M112.4,69c0,0,8.9,5.2,11,12"/>
	<path class="st0" d="M25.4,66.4c0,0-7.8,3.9-14.4,2.5"/>
	<path class="st0" d="M25.3,75.5c0,0-5.8,2.4-9.5,2.1"/>
	<path class="st0" d="M25.5,86.1c0,0-5.1,2.1-7.8,0.1"/>
	<line class="st0" x1="25.5" y1="96.5" x2="19.4" y2="92.9"/>
</g>
</svg>
