<svg version="1.1" xmlns="http://www.w3.org/2000/svg" xmlns:xlink="http://www.w3.org/1999/xlink" x="0px" y="0px"
	 viewBox="0 0 140.7 202.8" style="enable-background:new 0 0 140.7 202.8;" xml:space="preserve">
<style type="text/css">
	.st3{fill:#72C1DD;}
	.st4{fill:none;stroke:#254951;stroke-width:3;stroke-miterlimit:10;}
	.st5{fill:#254951;}
</style>
<g id="happy-old-woman">
	<path class="st3" d="M70.3,118.2c0,0,3.1-1.3,3.7-1.7s13.6,4.5,13.6,4.5s-1.4,8.9-17.3,8.9s-19.2-9-19.2-9l14.8-4.6L70.3,118.2z"/>
	<path class="st4" d="M58.7,83.5c-0.8-2.8-4-4.8-7.9-4.8c-3.9,0-7.1,2-7.9,4.8l-5.6-2"/>
	<path class="st5" d="M47.1,82c0,2,1.6,3.6,3.6,3.6s3.6-1.6,3.6-3.6c0-0.3,0-0.5-0.1-0.7c-0.3-1.7-1.8-2.9-3.6-2.9
		c-1.6,0-3,1.1-3.5,2.5C47.1,81.3,47.1,81.7,47.1,82z"/>
	<line class="st4" x1="45.7" y1="79.9" x2="41.9" y2="77.4"/>
	<path class="st4" d="M82.9,83.5c0.8-2.8,4-4.8,7.9-4.8c3.9,0,7.1,2,7.9,4.8l5.6-2"/>
	<path class="st5" d="M94.5,82c0,2-1.6,3.6-3.6,3.6c-2,0-3.6-1.6-3.6-3.6c0-0.3,0-0.5,0.1-0.7c0.3-1.7,1.8-2.9,3.6-2.9
		c1.6,0,3,1.1,3.5,2.5C94.5,81.3,94.5,81.7,94.5,82z"/>
	<line class="st4" x1="95.9" y1="79.9" x2="99.7" y2="77.4"/>
	<path class="st4" d="M78.3,71.9c0,0,4.5-5.6,14.2-3.3s11.2,6.7,11.2,6.7"/>
	<path class="st4" d="M62.7,71.9c0,0-4.5-5.6-14.2-3.3s-11.2,6.7-11.2,6.7"/>
	<path class="st4" d="M87.3,120.6c-3.2-0.9-12.2-5.5-13.3-4.1c-1,1.2-3.4,1.7-3.7,1.7c-0.3-0.1-2.7-0.5-3.7-1.7
		c-1.1-1.3-10.1,3.2-13.3,4.1c8.2,3,10.9,3.6,17,3.6S79.1,123.6,87.3,120.6z"/>
	<path class="st4" d="M52.2,120.5c0,0,4.3,10.4,18.1,10.4s16.7-10,16.7-10"/>
	<path class="st4" d="M83.4,92.6c0,0,11,1,15,2.9"/>
	<path class="st4" d="M57.4,92.6c0,0-11,1-15,2.9"/>
</g>
</svg>
