<?xml version="1.0" encoding="utf-8"?>
<!-- Generator: Adobe Illustrator 22.1.0, SVG Export Plug-In . SVG Version: 6.00 Build 0)  -->
<svg version="1.1" xmlns="http://www.w3.org/2000/svg" xmlns:xlink="http://www.w3.org/1999/xlink" x="0px" y="0px"
	 viewBox="0 0 116.7 178.1" style="enable-background:new 0 0 116.7 178.1;" xml:space="preserve">
<style type="text/css">
	.st0{display:none;}
	.st1{display:inline;fill:#72C1DD;stroke:#254951;stroke-width:3;stroke-miterlimit:10;}
	.st2{display:inline;fill:none;stroke:#254951;stroke-width:4;stroke-miterlimit:10;}
	.st3{display:inline;fill:none;stroke:#254951;stroke-width:3;stroke-miterlimit:10;}
	.st4{display:inline;fill:#254951;}
	.st5{fill:#254951;}
	.st6{fill:none;stroke:#254951;stroke-width:3;stroke-miterlimit:10;}
</style>
<g id="yuppy-head" class="st0">
	<path class="st1" d="M47.7,178c-0.1-5.3,2.8-13.6,2.8-13.6l7.5-3.8l5.7,3.8c0,0,2.9,8.2,2.8,13.6"/>
	<path class="st1" d="M50.4,164.1h14.2c0,0,6.5-9.8,4.6-15.8c-1.9-6-11.8-5.3-11.8-5.3s-8.1-0.4-12.2,6.2
		C44.1,151,47.9,161,50.4,164.1z"/>
	<path class="st2" d="M102.2,40.1c0,0,0.4-23.9-43.5-26v0c-0.1,0-0.2,0-0.3,0c-0.1,0-0.2,0-0.3,0v0c-43.8,2.1-43.5,26-43.5,26
		s-0.5,47.9,1.9,66.1c5.5,17,23.4,30.1,28.1,33.7c4.2,3.2,12.1,2.5,13.8,2.3c1.7,0.2,9.6,0.9,13.8-2.3c4.8-3.6,22.6-16.7,28.1-33.7
		C102.7,88,102.2,40.1,102.2,40.1z"/>
	<path class="st3" d="M83.3,54.2c0,0-2.1-2.9-8.6-2.9s-11.6,3.6-16.3,3.6s-9.8-3.6-16.4-3.6s-8.6,2.9-8.6,2.9"/>
	<path class="st3" d="M80.8,48.4c0,0-1.9-2.2-7.7-2.2s-10.3,2.8-14.5,2.8s-8.8-2.8-14.6-2.8s-7.7,2.2-7.7,2.2"/>
	<path class="st3" d="M47.5,129.7c0-2.6,4.9-4.7,10.9-4.7s10.9,2.1,10.9,4.7"/>
	<path class="st3" d="M102,80.7c0,0,3.9-3.5,9.2-3.5c5.3,0,3.8,12.1,3.8,12.1s-0.8,10.6-5.3,10.6s-6.8,0-6.8,0"/>
	<path class="st3" d="M14.7,80.6c0,0-3.9-3.4-9.2-3.4S1.7,89.3,1.7,89.3S2.5,99.9,7,99.9s6.8,0,6.8,0"/>
	<path class="st3" d="M78.5,67c0,0-14.6-1-14.7,6.3c-0.1,8.5,4.3,12.8,11.2,12.8S90,85,90.7,75.9C91.3,66.7,78.5,67,78.5,67z"/>
	<line class="st3" x1="90.7" y1="75.9" x2="102.8" y2="76.7"/>
	<path class="st3" d="M37.7,67c0,0,14.6-1,14.7,6.3c0.1,8.5-4.3,12.8-11.2,12.8s-15-1.2-15.7-10.3C24.8,66.7,37.7,67,37.7,67z"/>
	<line class="st3" x1="25.5" y1="75.9" x2="13.3" y2="76.7"/>
	<line class="st3" x1="52.7" y1="74.5" x2="63.3" y2="74.5"/>
	<path class="st1" d="M14.8,79.5c0,0-9.2-1.3-7.2-7s5-8.7,1.8-15.2s0-11.3,1.2-13.7c1.2-2.3,0.8-16.8,10.2-25.3s22-17.5,36.3-16.8
		s27.5,4.7,30.5,12.3s-7.3,21-26.2,20.3c-18.8-0.7-19.8-8-25-7.3C31.3,27.5,19,32,17.8,50s0,24,0,24S18.7,79.5,14.8,79.5z"/>
	<path class="st1" d="M86.3,23.9c0,0,16.2,0.2,16.2,21.5s-0.3,33.3-0.3,33.3s3.3,5.5,6.2-11.2c2.8-16.7,4.3-27.8-0.3-39.3
		c-3.8-9.7-7.9-13.7-11.7-14.2c-5-0.7-8.2,1.5-8.2,1.5L86.3,23.9z"/>
	<path class="st3" d="M57.8,142.8c0,0,13.9,1.1,13.5,9.6c-0.4,8.5-0.8,12.5-0.8,12.5s21.8-18.1,22.5-24.3s-0.5-20.8-0.5-20.8"/>
	<path class="st3" d="M57.8,142.8c0,0-13.9,1.1-13.5,9.6s0.8,12.5,0.8,12.5s-21.8-18.1-22.5-24.3s0.5-20.8,0.5-20.8"/>
	<path class="st3" d="M67,34.1c0,0,9.5-4.5,6.2-17.9"/>
	<path class="st3" d="M78.7,30.2c0,0,4.6-4,2.2-12.2"/>
	<path class="st3" d="M59.4,33.6c0,0,7-5.9,3.1-16.6"/>
	<path class="st3" d="M51.4,32.6c0,0,3.9-3.9,0.2-10"/>
	<path class="st3" d="M41.5,28.4c0,0,1.4-2.9-1.7-6.8"/>
	<path class="st3" d="M68.3,97.2c0,3.5-4.8,5.7-10,5.7s-10-2.2-10-5.7"/>
</g>
<g id="yuppy-happy" class="st0">
	<path class="st3" d="M30.7,77.4c0.8-2.8,4-4.8,7.9-4.8c3.9,0,7.1,2,7.9,4.8"/>
	<path class="st4" d="M42.3,75.9c0,2-1.6,3.6-3.6,3.6S35,77.9,35,75.9c0-0.3,0-0.5,0.1-0.7c0.3-1.7,1.8-2.9,3.6-2.9
		c1.6,0,3,1.1,3.5,2.5C42.2,75.1,42.3,75.5,42.3,75.9z"/>
	<path class="st3" d="M69.9,77.4c0.8-2.8,4-4.8,7.9-4.8c3.9,0,7.1,2,7.9,4.8"/>
	<path class="st4" d="M81.5,75.9c0,2-1.6,3.6-3.6,3.6c-2,0-3.6-1.6-3.6-3.6c0-0.3,0-0.5,0.1-0.7c0.3-1.7,1.8-2.9,3.6-2.9
		c1.6,0,3,1.1,3.5,2.5C81.5,75.1,81.5,75.5,81.5,75.9z"/>
	<path class="st3" d="M74,100c0,0,4.3,6.8,5.2,11.2"/>
	<path class="st1" d="M43.2,100c0,0-4.3,6.8-5.2,11.2"/>
	<path class="st3" d="M43.5,117.5c0,0,13,1.8,18,1.3s8.5-4,9.8-5.3"/>
</g>
<g id="yuppy-sad">
	<path class="st5" d="M39.3,120.5c-1-2.3,8.6-12.1,19-12.1c10.2,0,20.1,9.9,19.3,12.1c-0.8,2.2-8-1.9-19.1-1.9
		S40.3,122.8,39.3,120.5z"/>
	<line class="st6" x1="69.7" y1="75.2" x2="86.5" y2="79.9"/>
	<line class="st6" x1="47.7" y1="75.2" x2="30.9" y2="79.9"/>
	<path class="st6" d="M74.8,99.4c0,0,6.9,12.1,8.3,21.1"/>
	<path class="st6" d="M42.1,99.4c0,0-6.9,12.1-8.3,21.1"/>
</g>
</svg>
